<?xml version="1.0" encoding="UTF-8" standalone="no"?>
<!-- Created with Inkscape (http://www.inkscape.org/) -->
<svg
   xmlns:svg="http://www.w3.org/2000/svg"
   xmlns="http://www.w3.org/2000/svg"
   xmlns:xlink="http://www.w3.org/1999/xlink"
   version="1.0"
   width="48"
   height="48"
   id="svg4376">
  <defs
     id="defs3">
    <linearGradient
       id="linearGradient3290">
      <stop
         id="stop3292"
         style="stop-color:#fffcde;stop-opacity:1"
         offset="0" />
      <stop
         id="stop3294"
         style="stop-color:#f6e76a;stop-opacity:1"
         offset="0.64485979" />
      <stop
         id="stop3296"
         style="stop-color:#ffb738;stop-opacity:1"
         offset="1" />
    </linearGradient>
    <radialGradient
       cx="29.288071"
       cy="15.720984"
       r="8.9020796"
       fx="29.158466"
       fy="15.755712"
       id="radialGradient2714"
       xlink:href="#linearGradient3290"
       gradientUnits="userSpaceOnUse" />
    <radialGradient
       cx="25.0527"
       cy="39.5928"
       r="15.7572"
       fx="25.0527"
       fy="39.5928"
       id="aigrd2"
       gradientUnits="userSpaceOnUse"
       gradientTransform="matrix(1.25,0,0,1.25,53.52055,-13.37211)">
      <stop
         id="stop8602"
         style="stop-color:#777777;stop-opacity:1"
         offset="0" />
      <stop
         id="stop8604"
         style="stop-color:#000000;stop-opacity:1"
         offset="1" />
    </radialGradient>
    <linearGradient
       id="linearGradient4565">
      <stop
         id="stop4567"
         style="stop-color:#000000;stop-opacity:1"
         offset="0" />
      <stop
         id="stop4569"
         style="stop-color:#000000;stop-opacity:0"
         offset="1" />
    </linearGradient>
    <radialGradient
       cx="24.714285"
       cy="38.57143"
       r="19.714285"
       fx="24.714285"
       fy="38.57143"
       id="radialGradient4571"
       xlink:href="#linearGradient4565"
       gradientUnits="userSpaceOnUse"
       gradientTransform="matrix(1,0,0,0.333333,0,25.71429)" />
    <radialGradient
       cx="-23.452122"
       cy="38.602852"
       r="15.7572"
       fx="-23.452122"
       fy="38.602852"
       id="radialGradient2213"
       xlink:href="#aigrd2"
       gradientUnits="userSpaceOnUse"
       gradientTransform="matrix(1.357899,0,0,0.416667,55.84561,15.2093)" />
    <radialGradient
       cx="-23.452122"
       cy="38.602852"
       r="15.7572"
       fx="-23.452122"
       fy="38.602852"
       id="radialGradient2799"
       xlink:href="#aigrd2"
       gradientUnits="userSpaceOnUse"
       gradientTransform="matrix(1.3502163,-0.5216083,0.1564908,0.3875347,50.161913,-1.0065046)" />
    <radialGradient
       cx="-23.452122"
       cy="38.602852"
       r="15.7572"
       fx="-23.452122"
       fy="38.602852"
       id="radialGradient2827"
       xlink:href="#aigrd2"
       gradientUnits="userSpaceOnUse"
       gradientTransform="matrix(1.3502163,-0.5216083,0.1564908,0.3875347,50.161913,-1.0065046)" />
    <radialGradient
       cx="-23.452122"
       cy="38.602852"
       r="15.7572"
       fx="-23.452122"
       fy="38.602852"
       id="radialGradient2837"
       xlink:href="#aigrd2"
       gradientUnits="userSpaceOnUse"
       gradientTransform="matrix(1.3502163,-0.5216083,0.1564908,0.3875347,50.161913,-1.0065046)" />
    <radialGradient
       cx="-23.452122"
       cy="38.602852"
       r="15.7572"
       fx="-23.452122"
       fy="38.602852"
       id="radialGradient2843"
       xlink:href="#aigrd2"
       gradientUnits="userSpaceOnUse"
       gradientTransform="matrix(1.3502163,-0.5216083,0.1564908,0.3875347,50.161913,-1.0065046)" />
    <radialGradient
       cx="-23.452122"
       cy="38.602852"
       r="15.7572"
       fx="-23.452122"
       fy="38.602852"
       id="radialGradient2846"
       xlink:href="#aigrd2"
       gradientUnits="userSpaceOnUse"
       gradientTransform="matrix(1.3502162,-0.5216083,0.1564908,0.3875347,50.161911,-1.0065046)" />
    <radialGradient
       cx="-23.452122"
       cy="38.602852"
       r="15.7572"
       fx="-23.452122"
       fy="38.602852"
       id="radialGradient2955"
       xlink:href="#aigrd2"
       gradientUnits="userSpaceOnUse"
       gradientTransform="matrix(1.3502161,-0.5216083,0.1564908,0.3875347,50.462021,1.8664137)" />
    <radialGradient
       cx="-23.452122"
       cy="38.602852"
       r="15.7572"
       fx="-23.452122"
       fy="38.602852"
       id="radialGradient2976"
       xlink:href="#aigrd2"
       gradientUnits="userSpaceOnUse"
       gradientTransform="matrix(1.3502163,-0.5216083,0.1564908,0.3875347,50.161913,-1.0065046)" />
    <radialGradient
       cx="-23.452122"
       cy="38.602852"
       r="15.7572"
       fx="-23.452122"
       fy="38.602852"
       id="radialGradient2986"
       xlink:href="#aigrd2"
       gradientUnits="userSpaceOnUse"
       gradientTransform="matrix(1.3502163,-0.5216083,0.1564908,0.3875347,50.161913,-1.0065046)" />
    <radialGradient
       cx="-23.452122"
       cy="38.602852"
       r="15.7572"
       fx="-23.452122"
       fy="38.602852"
       id="radialGradient2996"
       xlink:href="#aigrd2"
       gradientUnits="userSpaceOnUse"
       gradientTransform="matrix(1.3502163,-0.5216083,0.1564908,0.3875347,50.161913,-1.0065046)" />
  </defs>
  <g
     id="layer1">
    <path
       d="M 44.42857,38.57143 A 19.714285,6.5714288 0 1 1 5,38.57143 A 19.714285,6.5714288 0 1 1 44.42857,38.57143 z"
       id="path4563"
       style="opacity:0.53164559;fill:url(#radialGradient4571);fill-opacity:1;fill-rule:evenodd;stroke:none;stroke-width:0.40487173;stroke-linecap:round;stroke-linejoin:round;marker:none;marker-start:none;marker-mid:none;marker-end:none;stroke-miterlimit:4;stroke-dasharray:none;stroke-dashoffset:0;stroke-opacity:1;visibility:visible;display:inline;overflow:visible" />
    <path
       d="M 39.774755,19.008621 A 8.6620579,8.6620579 0 1 1 22.45064,19.008621 A 8.6620579,8.6620579 0 1 1 39.774755,19.008621 z"
       transform="matrix(2.083142,0,0,2.083142,-40.54715,-16.49224)"
       id="path4320"
       style="opacity:1;fill:url(#radialGradient2714);fill-opacity:1;fill-rule:evenodd;stroke:#9c8c0a;stroke-width:0.48004404;stroke-linecap:round;stroke-linejoin:round;marker:none;marker-start:none;marker-mid:none;marker-end:none;stroke-miterlimit:4;stroke-dasharray:none;stroke-dashoffset:0;stroke-opacity:1;visibility:visible;display:inline;overflow:visible" />
    <path
       d="M 39.774755,19.008621 A 8.6620579,8.6620579 0 1 1 22.45064,19.008621 A 8.6620579,8.6620579 0 1 1 39.774755,19.008621 z"
       transform="matrix(1.979782,0,0,1.979782,-37.33128,-14.52746)"
       id="path4322"
       style="opacity:0.67721522;fill:none;fill-opacity:1;fill-rule:evenodd;stroke:#ffffff;stroke-width:0.50510627;stroke-linecap:round;stroke-linejoin:round;marker:none;marker-start:none;marker-mid:none;marker-end:none;stroke-miterlimit:4;stroke-dasharray:none;stroke-dashoffset:0;stroke-opacity:1;visibility:visible;display:inline;overflow:visible" />
    <path
       d="M 21.751711,18.841286 C 21.751711,20.715086 20.626711,22.214126 19.251711,22.214126 C 17.876711,22.214126 16.626711,20.715086 16.626711,18.841286 C 16.626711,16.967486 17.751711,15.468446 19.126711,15.468446 C 20.501711,15.468446 21.626711,16.967486 21.626711,18.841286 L 21.751711,18.841286 z"
       id="path8610"
       style="opacity:0.36000001;fill:#ffffff;fill-rule:nonzero;stroke:none;stroke-miterlimit:4" />
    <path
       d="M 31.042065,18.841286 C 31.042065,20.715086 29.917065,22.214126 28.542065,22.214126 C 27.167065,22.214126 26.042065,20.715086 26.042065,18.841286 C 26.042065,16.967486 27.167065,15.468446 28.542065,15.468446 C 29.917065,15.468446 31.042065,16.967486 31.042065,18.841286 z"
       id="path8612"
       style="opacity:0.36000001;fill:#ffffff;fill-rule:nonzero;stroke:none;stroke-miterlimit:4" />
    <path
       d="M 21.600943,19.227886 C 20.960065,20.988682 19.390209,22.012547 18.098132,21.542269 C 16.806054,21.071991 16.261602,19.278582 16.902479,17.517786 C 17.543357,15.75699 19.113213,14.733125 20.40529,15.203403 C 21.697368,15.673681 22.24182,17.46709 21.600943,19.227886 z"
       id="path8614"
       style="fill:#000000;fill-rule:nonzero;stroke:none;stroke-miterlimit:4" />
    <path
       d="M 30.891297,17.517786 C 31.532174,19.278582 30.987722,21.071991 29.695644,21.542269 C 28.403567,22.012547 26.833711,20.988682 26.192833,19.227886 C 25.551956,17.46709 26.096408,15.673681 27.388486,15.203403 C 28.680563,14.733125 30.250419,15.75699 30.891297,17.517786 z"
       id="path8616"
       style="fill:#000000;fill-rule:nonzero;stroke:none;stroke-miterlimit:4" />
    <path
       d="M 21.281562,18.792891 A 1.5777711,1.9080021 0 1 1 18.12602,18.792891 A 1.5777711,1.9080021 0 1 1 21.281562,18.792891 z"
       transform="translate(0.3669235,-1.1007705)"
       id="path2803"
       style="fill:#ffffff;fill-opacity:1;stroke-width:4;stroke-miterlimit:4;stroke-dasharray:none" />
    <path
       d="M 21.281562,18.792891 A 1.5777711,1.9080021 0 1 1 18.12602,18.792891 A 1.5777711,1.9080021 0 1 1 21.281562,18.792891 z"
       transform="translate(7.980319,-1.1741552)"
       id="path2809"
       style="fill:#ffffff;fill-opacity:1;stroke-width:4;stroke-miterlimit:4;stroke-dasharray:none" />
    <g
       transform="matrix(0.8165382,0,0,1,6.2376992,0)"
       id="g2972">
      <rect
         width="20.447889"
         height="1"
         rx="0.51119727"
         ry="0.5"
         x="14.313523"
         y="23.892426"
         transform="matrix(0.978096,0.2081541,0,1,0,0)"
         id="rect2453"
         style="opacity:1;fill:url(#radialGradient2996);fill-opacity:1;fill-rule:nonzero;stroke:none;stroke-width:1;stroke-linecap:butt;stroke-linejoin:miter;marker:none;marker-start:none;marker-mid:none;marker-end:none;stroke-miterlimit:4;stroke-dasharray:none;stroke-dashoffset:0;stroke-opacity:1;visibility:visible;display:inline;overflow:visible" />
      <rect
         width="20.447889"
         height="1"
         rx="0.51119727"
         ry="0.5"
         x="14.313522"
         y="24.892426"
         transform="matrix(0.978096,0.2081541,0,1,0,0)"
         id="rect1336"
         style="opacity:0.36000001;fill:#ffffff;fill-opacity:1;fill-rule:nonzero;stroke:none;stroke-width:1;stroke-linecap:butt;stroke-linejoin:miter;marker:none;marker-start:none;marker-mid:none;marker-end:none;stroke-miterlimit:4;stroke-dasharray:none;stroke-dashoffset:0;stroke-opacity:1;visibility:visible;display:inline;overflow:visible" />
    </g>
  </g>
  <g
     id="layer2" />
</svg>
